<?xml version="1.0" encoding="utf-8"?>
<!-- Generator: Adobe Illustrator 27.4.1, SVG Export Plug-In . SVG Version: 6.00 Build 0)  -->
<svg version="1.1" id="Layer_1" xmlns="http://www.w3.org/2000/svg" xmlns:xlink="http://www.w3.org/1999/xlink" x="0px" y="0px"
	 viewBox="0 0 16 16" style="enable-background:new 0 0 16 16;" xml:space="preserve">
<style type="text/css">
	.st0{fill:none;stroke:#CCCCCC;stroke-width:0.25;stroke-miterlimit:10;}
	.st1{fill:#CCCCCC;}
	.st2{fill:none;}
</style>
<g>
	<g>
		<path class="st0" d="M13.8,5.2C13.8,5.2,13.8,5.2,13.8,5.2C13.8,5.2,13.8,5.2,13.8,5.2c0-0.1,0.1-0.1,0.1-0.2
			c0.2-0.4,0.3-0.8,0.1-1.2c-0.2-0.3-0.4-0.5-0.7-0.6c-0.2,0-0.3-0.1-0.5-0.1c-0.2,0-0.3,0-0.5,0c-0.2,0-0.4,0-0.5,0.1
			c-0.5,0.1-0.9,0.2-1.4,0.4c-0.1,0-0.1,0-0.2,0C10,3.4,9.7,3.3,9.5,3.2C9.3,3.2,9.1,3.1,8.9,3.1c-0.1,0-0.2,0-0.4,0
			c-0.1,0-0.1,0-0.2,0c-0.2,0-0.4,0-0.6,0c-0.1,0-0.2,0-0.3-0.1C7.3,2.9,7.2,2.8,7.1,2.8c-0.3-0.1-0.5-0.1-0.8,0
			C6.1,2.8,6,2.9,5.8,2.9C5.5,3,5.2,3.1,4.9,3.2C4.7,3.3,4.6,3.4,4.4,3.6C4.3,3.8,4.2,4,4.3,4.3c0,0.1,0,0.1-0.1,0.1
			C4,4.6,3.8,4.7,3.6,4.9C3.4,5.2,3.1,5.4,2.8,5.7c-0.3,0.3-0.4,0.6-0.4,1c0,0.3,0.1,0.5,0.3,0.7C3,7.5,3.2,7.6,3.5,7.7
			c0,0,0.1,0,0,0.1c0,0.1,0,0.1,0,0.2c0,0.2,0,0.4,0,0.6c0,0.1,0,0.2,0.1,0.3c0,0.1,0.1,0.3,0.2,0.4c0,0,0.1,0.1,0.1,0.1
			c0,0.1,0,0.3,0.1,0.4c0,0.1,0.1,0.2,0.2,0.3c0.2,0.2,0.4,0.3,0.7,0.4c0.3,0.1,0.6,0.1,0.9,0.1c0.1,0,0.1,0,0.2,0.1
			C5.9,10.9,6.1,11,6.3,11c0.3,0.1,0.6,0,0.8,0c0.1,0,0.2,0,0.4,0c0.1,0,0.3,0.1,0.4,0.1c0.3,0,0.7,0,1,0c0.1,0,0.2,0,0.2,0
			c0.2,0,0.4-0.1,0.6-0.3c0,0,0.1,0,0.1,0c0.1,0,0.2,0,0.3,0c0.2,0,0.3,0,0.5-0.1c0.1-0.1,0.3-0.1,0.4-0.1c0.3,0,0.5-0.1,0.8-0.1
			c0,0,0.1,0,0.1,0c0.1,0.2,0.2,0.3,0.3,0.4c0.2,0.2,0.5,0.3,0.8,0.3c0.2,0,0.4,0,0.6-0.1c0.4-0.1,0.7-0.2,0.8-0.6
			c0-0.1,0.1-0.1,0.2-0.2c0.3-0.1,0.5-0.3,0.7-0.5c0.2-0.2,0.5-0.4,0.5-0.7c0-0.1,0.1-0.3,0-0.4c0,0,0-0.1,0-0.1c0,0,0-0.1,0-0.1
			c-0.1-0.2-0.2-0.3-0.3-0.4c-0.1-0.1-0.3-0.2-0.4-0.2c-0.1,0-0.1,0-0.1-0.1c0-0.1,0-0.2,0-0.3c0,0,0-0.1,0-0.1
			c0.1-0.1,0.1-0.1,0.2-0.2c0.2-0.2,0.3-0.4,0.4-0.7c0.1-0.2,0.2-0.5,0.1-0.8c0-0.1,0-0.2-0.1-0.3c-0.1-0.1-0.1-0.3-0.2-0.4
			c-0.3-0.2-0.6-0.3-0.9-0.3C14.2,4.9,14,5,13.8,5.2C13.8,5.2,13.8,5.2,13.8,5.2z"/>
		<path class="st0" d="M13.8,5.2C13.8,5.2,13.8,5.2,13.8,5.2C14,5,14.2,4.9,14.4,4.9c0.3-0.1,0.7,0,0.9,0.3c0.1,0.1,0.2,0.2,0.2,0.4
			c0,0.1,0.1,0.2,0.1,0.3c0,0.3,0,0.5-0.1,0.8c-0.1,0.2-0.2,0.5-0.4,0.7c-0.1,0.1-0.1,0.1-0.2,0.2c0,0,0,0,0,0.1c0,0.1,0,0.2,0,0.3
			c0,0,0,0.1,0.1,0.1c0.2,0,0.3,0.1,0.4,0.2c0.1,0.1,0.2,0.2,0.3,0.4c0,0,0,0.1,0,0.1c0,0,0,0.1,0,0.1c0,0.1,0,0.3,0,0.4
			c-0.1,0.3-0.3,0.5-0.5,0.7c-0.2,0.2-0.5,0.3-0.7,0.5c-0.1,0-0.1,0.1-0.2,0.2c-0.2,0.4-0.4,0.5-0.8,0.6c-0.2,0-0.4,0-0.6,0.1
			c-0.3,0-0.5-0.1-0.8-0.3c-0.1-0.1-0.2-0.2-0.3-0.4c0,0,0,0-0.1,0c-0.3,0-0.5,0.1-0.8,0.1c-0.1,0-0.3,0.1-0.4,0.1
			c-0.1,0.1-0.3,0.1-0.5,0.1c-0.1,0-0.2,0-0.3,0c0,0-0.1,0-0.1,0c-0.2,0.2-0.4,0.2-0.6,0.3c-0.1,0-0.2,0-0.2,0c-0.3,0-0.7,0-1,0
			c-0.1,0-0.3,0-0.4-0.1c-0.1,0-0.2,0-0.4,0c-0.3,0-0.6,0.1-0.8,0c-0.2-0.1-0.4-0.2-0.6-0.3c-0.1-0.1-0.1-0.1-0.2-0.1
			c-0.3,0-0.6-0.1-0.9-0.1c-0.3,0-0.5-0.2-0.7-0.4C3.9,10,3.9,9.9,3.8,9.8c0-0.1-0.1-0.3-0.1-0.4c0,0,0-0.1-0.1-0.1
			C3.7,9.1,3.6,9,3.5,8.9c0-0.1-0.1-0.2-0.1-0.3c0-0.2,0-0.4,0-0.6c0-0.1,0-0.1,0-0.2c0,0,0-0.1,0-0.1C3.2,7.6,3,7.5,2.8,7.4
			C2.6,7.2,2.5,7,2.5,6.7c0-0.4,0.1-0.8,0.4-1c0.3-0.3,0.5-0.5,0.8-0.7C3.8,4.7,4,4.6,4.2,4.4c0,0,0.1-0.1,0.1-0.1
			c0-0.2,0-0.5,0.2-0.7c0.1-0.2,0.3-0.3,0.5-0.4C5.2,3.1,5.5,3,5.8,2.9C6,2.9,6.1,2.8,6.3,2.8c0.3-0.1,0.5-0.1,0.8,0
			c0.1,0,0.2,0.1,0.3,0.2c0.1,0.1,0.2,0.1,0.3,0.1c0.2,0,0.4,0,0.6,0c0.1,0,0.1,0,0.2,0c0.1,0,0.2,0,0.4,0c0.2,0,0.4,0.1,0.6,0.1
			c0.3,0.1,0.5,0.2,0.7,0.4c0.1,0.1,0.1,0.1,0.2,0c0.4-0.2,0.9-0.3,1.4-0.4c0.2,0,0.3-0.1,0.5-0.1c0.2,0,0.3,0,0.5,0
			c0.2,0,0.3,0,0.5,0.1c0.3,0.1,0.6,0.3,0.7,0.6c0.2,0.4,0.2,0.8-0.1,1.2C13.9,5,13.8,5.1,13.8,5.2C13.8,5.2,13.8,5.2,13.8,5.2
			C13.8,5.2,13.8,5.2,13.8,5.2z"/>
	</g>
	
		<image style="overflow:visible;" width="214" height="70" id="Layer_7_xA0_Image_00000108296756274898209760000016696584487513855671_" xlink:href="6A9FB6AB.png"  transform="matrix(4.172571e-02 0 0 4.172571e-02 4.7727 4.0137)">
	</image>
	<g>
		<path class="st1" d="M12.9,7.9c0.2,0,0.4,0,0.6,0c0,0,0.1,0.1,0.1,0.1c0,0,0,0.1,0,0.1c0,0-0.1,0-0.1,0c-0.1,0-0.2,0-0.3,0
			c0,0,0,0,0,0c0,0,0.1,0.1,0.1,0.1c0.1,0.2,0.2,0.3,0.2,0.6c0,0.2-0.1,0.4-0.3,0.5c-0.2,0.2-0.4,0.3-0.6,0.4
			c-0.2,0.1-0.4,0.2-0.6,0.1c-0.1,0-0.1,0-0.2,0c-0.4,0-0.8,0.1-1.1,0.2c-0.3,0-0.6,0.1-0.8,0.1c-0.1,0-0.2,0-0.3,0c0,0,0,0,0.1,0
			c-0.1,0-0.2,0-0.3,0c0,0,0,0,0,0c-0.1,0-0.2,0-0.3-0.1C8.6,9.9,8.3,9.6,8,9.2C7.9,9.1,7.8,9,7.8,8.8c0,0,0,0,0,0.1
			c0-0.1,0-0.2,0-0.3c0,0,0,0,0,0c0,0,0-0.1,0-0.1c0.1-0.2,0.2-0.3,0.4-0.4c0,0,0.1,0,0.1,0c0.2,0,0.5,0,0.7,0c0.6,0,1.1,0,1.7,0
			c0.5,0,1.1,0,1.6,0c0.3,0,0.7,0,1,0c0,0,0,0,0.1,0c-0.1,0-0.1,0-0.2,0C13.2,7.9,13,7.9,12.9,7.9z M12.8,8.2c-0.1,0-0.1,0-0.2,0
			c-0.3,0-0.5,0-0.8,0c-0.5,0-1,0-1.6,0c-0.6,0-1.3,0-1.9,0c-0.2,0-0.3,0.1-0.3,0.2C8,8.7,8,8.9,8.1,9.1c0.2,0.4,0.5,0.6,0.9,0.8
			C9.2,10,9.4,10,9.6,10c0.6-0.1,1.1-0.2,1.7-0.3c0.2,0,0.5-0.1,0.7,0c0,0,0.1,0,0.1,0c0.2,0,0.3-0.1,0.4-0.2
			C12.8,9.4,13,9.2,13.1,9c0.1-0.2,0.1-0.4,0-0.6C13.1,8.4,13,8.3,12.8,8.2C12.9,8.2,12.8,8.2,12.8,8.2z"/>
		<path class="st2" d="M12.8,8.2C12.8,8.2,12.9,8.2,12.8,8.2c0.1,0.2,0.2,0.2,0.3,0.3c0.1,0.2,0.1,0.4,0,0.6
			c-0.1,0.2-0.3,0.4-0.6,0.5c-0.1,0.1-0.3,0.1-0.4,0.2c0,0-0.1,0-0.1,0c-0.2,0-0.5,0-0.7,0c-0.6,0.1-1.1,0.2-1.7,0.3
			c-0.2,0-0.4,0-0.6-0.1C8.7,9.7,8.4,9.4,8.1,9.1C8,8.9,8,8.7,8.1,8.5c0.1-0.1,0.2-0.2,0.3-0.2c0.6,0,1.3,0,1.9,0c0.5,0,1,0,1.6,0
			c0.3,0,0.5,0,0.8,0C12.7,8.2,12.8,8.2,12.8,8.2z"/>
	</g>
	<g>
		<path class="st1" d="M4.8,5.3C4.8,5.3,4.8,5.3,4.8,5.3c0.1-0.2,0.2-0.4,0.3-0.5c0.3-0.2,0.7-0.5,1-0.7C6.5,3.9,7,3.9,7.4,4
			c0.5,0.2,1,0.3,1.4,0.5c0,0,0,0,0.1,0c0.4-0.2,0.8-0.3,1.2-0.4C10.5,4.1,11,4,11.5,4.1c0,0,0,0,0,0c-0.3-0.1-0.6-0.2-0.8-0.3
			c0,0,0,0,0,0c0.1,0,0.1,0,0.2,0c0.5,0.1,1,0.2,1.6,0.4c0.4,0.1,0.7,0.3,1,0.6c0.2,0.2,0.3,0.5,0.3,0.8c0,0.1,0,0.1,0,0.2
			c0,0,0-0.1,0-0.1c0,0.1,0,0.1,0,0.2c0,0,0,0,0,0c0,0.1-0.1,0.2-0.2,0.3c-0.1,0.1-0.2,0.2-0.3,0.3c-0.3,0.2-0.7,0.3-1.1,0.5
			c0,0,0,0,0,0c-0.1,0-0.2,0-0.3,0c0,0,0,0,0.1,0c-0.1,0-0.1,0-0.2,0c-0.3-0.1-0.6-0.2-0.9-0.4c-0.5-0.3-0.9-0.7-1.3-1.2
			C9.4,5.1,9.2,5,8.9,4.8c0,0-0.1,0-0.1,0C8.4,5.1,8,5.4,7.6,5.7c-0.3,0.2-0.7,0.4-1,0.6C6.4,6.3,6.1,6.4,5.9,6.4
			c-0.2,0-0.4,0-0.6-0.1C5.1,6.2,4.9,5.9,4.8,5.6c0,0,0-0.1,0-0.1c0,0,0,0.1,0,0.1C4.8,5.5,4.8,5.4,4.8,5.3z M9.1,4.7
			c0.1,0.1,0.1,0.1,0.2,0.1C9.5,5,9.6,5.1,9.8,5.4c0.2,0.3,0.5,0.6,0.8,0.8c0.3,0.2,0.7,0.4,1,0.6c0.2,0.1,0.5,0.1,0.7,0
			c0.3-0.1,0.5-0.2,0.8-0.4c0.1-0.1,0.2-0.2,0.4-0.3c0.1,0,0.1-0.1,0.1-0.2c0-0.1,0-0.2,0-0.3c-0.1-0.6-0.5-1-1.2-1.2
			c-0.2-0.1-0.5-0.1-0.8-0.1c-0.3,0-0.6,0-1,0c-0.4,0-0.8,0.1-1.2,0.2C9.4,4.5,9.2,4.6,9.1,4.7z M8.7,4.7C8.7,4.7,8.7,4.7,8.7,4.7
			C8.6,4.6,8.5,4.6,8.4,4.5C8.1,4.4,7.8,4.3,7.4,4.2C7,4.1,6.5,4.1,6.1,4.4C5.8,4.5,5.5,4.7,5.2,4.9C5.2,5,5.1,5,5.1,5.1
			C5,5.2,5,5.3,5,5.5c0,0.2,0.1,0.3,0.2,0.5c0.1,0.2,0.3,0.3,0.5,0.3c0.2,0,0.4,0,0.6-0.1c0.4-0.1,0.7-0.3,1-0.5
			C7.7,5.3,8.2,5,8.7,4.7z"/>
	</g>
	<g>
		<path class="st1" d="M10.5,9.4C10.5,9.4,10.5,9.4,10.5,9.4c0,0-0.1,0-0.1,0c-0.2,0-0.3,0-0.5,0C9.6,9.3,9.3,9.3,9,9.2
			c-0.2,0-0.3-0.1-0.5-0.1c-0.1,0-0.1,0,0-0.1c0,0,0-0.1,0-0.1c0.1,0,0.1,0,0.2,0C9.2,9,9.6,9.1,10.1,9.2c0.3,0,0.6,0.1,0.9,0
			c0.2,0,0.4-0.1,0.6-0.1C12,9,12.3,8.9,12.6,8.8c0,0,0,0,0,0c0,0,0,0,0,0c0,0,0.1,0,0.1,0c0,0,0,0,0,0c0,0.1-0.1,0.1-0.1,0.2
			c0,0,0,0,0,0c0,0-0.1,0-0.1,0c-0.4,0.2-0.9,0.3-1.4,0.4C11.2,9.4,10.4,9.4,10.5,9.4z"/>
		<path class="st1" d="M10.4,9.4"/>
		<path class="st1" d="M12.7,8.8c0,0-1.1,0.5-1.5,0.5"/>
	</g>
	<circle class="st1" cx="11.4" cy="6" r="0.4"/>
	<circle class="st1" cx="9.1" cy="7.3" r="0.4"/>
	<circle class="st1" cx="6" cy="5.6" r="0.3"/>
	<path class="st1" d="M9.7,11.3l3.6,0.5c0,0,0.2,0.1,0.1,0.2c-0.1,0.1-2.6,2.1-2.6,2.1"/>
	<path class="st1" d="M0.5,6.4l9.1,0.8c0,0,0.3,0,0.3,0.5c0.1,0.5,0.9,6.4,0.9,6.4l-8.5-1.6c0,0-0.3-0.1-0.4-0.4
		c-0.1-0.3-1.8-5.4-1.8-5.4S0.1,6.4,0.5,6.4z"/>
</g>
</svg>
